HIERARCHY
ROOT ui
{
	 OFFSET 0 0 0
	 CHANNELS 3 XPosition YPosition Z Position
	 EndSite
	 {
	 OFFSET 0 -1 0
	 }
}
ROOT li
{
	 OFFSET 0 0 0
	 CHANNELS 3 XPosition YPosition Z Position
	 EndSite
	 {
	 OFFSET 0 -1 0
	 }
}
ROOT ul
{
	 OFFSET 0 0 0
	 CHANNELS 3 XPosition YPosition Z Position
	 EndSite
	 {
	 OFFSET 0 -1 0
	 }
}
ROOT ll
{
	 OFFSET 0 0 0
	 CHANNELS 3 XPosition YPosition Z Position
	 EndSite
	 {
	 OFFSET 0 -1 0
	 }
}
ROOT tt
{
	 OFFSET 0 0 0
	 CHANNELS 3 XPosition YPosition Z Position
	 EndSite
	 {
	 OFFSET 0 -1 0
	 }
}
ROOT tb
{
	 OFFSET 0 0 0
	 CHANNELS 3 XPosition YPosition Z Position
	 EndSite
	 {
	 OFFSET 0 -1 0
	 }
}
ROOT td
{
	 OFFSET 0 0 0
	 CHANNELS 3 XPosition YPosition Z Position
	 EndSite
	 {
	 OFFSET 0 -1 0
	 }
}
ROOT v
{
	 OFFSET 0 0 0
	 CHANNELS 3 XPosition YPosition Z Position
	 EndSite
	 {
	 OFFSET 0 -1 0
	 }
}
ROOT bn
{
	 OFFSET 0 0 0
	 CHANNELS 3 XPosition YPosition Z Position
	 EndSite
	 {
	 OFFSET 0 -1 0
	 }
}
MOTION
Frames: 16
Frame Time: 0.002
0.002959619998931885	-1.943100057542324E-5	0		0.4313162231445313	-2.297586669921875	0		-1.156048583984375	-0.04197198104858398	0		-0.78115966796875	-2.258507080078125	0		1.3927142333984375	-0.4465462646484375	0		3.05940283203125	0.15184626770019533	0		4.4577294921875	0.2082473907470703	0		5.647748046875	0.08882434844970703	0		-0.18259971618652343	5.91058203125	0		
0.02721902656555176	-4.82232004404068E-4	0		0.48579327392578125	-2.298575927734375	0		-1.07873779296875	-0.040551231384277346	0		-0.8165945434570312	-2.253910888671875	0		1.3854202880859374	-0.4252720947265625	0		3.044033447265625	0.17243386840820313	0		4.4731025390625	0.2153861541748047	0		5.64652392578125	0.08980869293212891	0		-0.3334508361816406	5.883400390625	0		
-4.702599942684174E-4	3.701300173997879E-5	0		0.45429525756835937	-2.299935546875	0		-1.0973116455078125	-0.0343123779296875	0		-0.7580564575195312	-2.25409521484375	0		1.377618896484375	-0.4329931945800781	0		3.0232314453125	0.16812176513671875	0		4.45240966796875	0.21721490478515626	0		5.64118603515625	0.10830274200439453	0		-0.21752398681640625	5.893169921875	0		
0.02388959312438965	-4.2593398690223694E-4	0		0.4777911376953125	-2.30533349609375	0		-1.09894384765625	-0.034397724151611325	0		-0.834397705078125	-2.2497421875	0		1.376026611328125	-0.43283154296875	0		3.036576416015625	0.16816664123535155	0		4.4615068359375	0.2044796142578125	0		5.6370859375	0.09732483673095703	0		-0.21974769592285157	5.89317236328125	0		
-0.0036698410511016846	8.194699883460998E-5	0		0.4494974365234375	-2.30276220703125	0		-1.0945986328125	-0.039596481323242186	0		-0.7648816528320312	-2.258125732421875	0		1.3745054931640626	-0.43267422485351564	0		3.044733154296875	0.15430451965332032	0		4.443037109375	0.21125828552246093	0		5.64307666015625	0.09280010986328124	0		-0.20769285583496094	5.90390869140625	0		
0.020843774795532226	-3.8282498717308046E-4	0		0.45233175659179686	-2.29777587890625	0		-1.160065673828125	-0.03849916458129883	0		-0.831909912109375	-2.244961181640625	0		1.3510880126953124	-0.431115234375	0		3.028609619140625	0.17489312744140625	0		4.45253271484375	0.21150453186035156	0		5.63788671875	0.11125550842285156	0		-0.3289330444335937	5.89511376953125	0		
0.019451717376708984	-3.670940101146698E-4	0		0.4511582336425781	-2.29771923828125	0		-1.0974649658203126	-0.039776039123535153	0		-0.7612113037109375	-2.252353271484375	0		1.3747879638671876	-0.42843447875976565	0		3.0219619140625	0.16228941345214845	0		4.45423095703125	0.21788551330566405	0		5.63690673828125	0.1121922607421875	0		-0.1975028533935547	5.9146396484375	0		
-0.007841617107391357	1.2149299681186675E-4	0		0.44803738403320315	-2.299630615234375	0		-1.178635498046875	-0.032401294708251954	0		-0.8002752685546874	-2.25071728515625	0		1.37045703125	-0.432241455078125	0		3.06384375	0.17278875732421875	0		4.44980322265625	0.2123647003173828	0		5.642412109375	0.11281387329101562	0		-0.21354905700683594	5.90389013671875	0		
0.012880019187927246	-0.004274683952331543	0		0.49788967895507813	-2.30851416015625	0		-1.1030113525390626	-0.04290700149536133	0		-0.7694059448242188	-2.258367431640625	0		1.3692945556640626	-0.43211163330078123	0		3.014561279296875	0.16994917297363282	0		4.44858251953125	0.2127737274169922	0		5.63514892578125	0.11397895812988282	0		-0.22948455810546875	5.89313330078125	0		
-0.01014856243133545	1.2706199288368226E-4	0		0.4440888671875	-2.30250634765625	0		-1.1691202392578126	-0.04282216262817383	0		-0.7943795776367187	-2.261997314453125	0		1.3682276611328126	-0.43198858642578125	0		3.0284384765625	0.16994566345214843	0		4.4364599609375	0.213369873046875	0		5.638521484375	0.09734684753417969	0		-0.2027176513671875	5.91460205078125	0		
0.014837955474853516	-3.4588900208473207E-4	0		0.47331103515625	-2.301012451171875	0		-1.0910843505859376	-0.04135470962524414	0		-0.7911024169921875	-2.257141357421875	0		1.373399658203125	-0.42398141479492185	0		3.049230224609375	0.15981077575683594	0		4.44341259765625	0.2126090545654297	0		5.64004345703125	0.11019194793701172	0		-0.2023135986328125	5.91054736328125	0		
-0.004947041034698486	0.006991526126861572	0		0.4486865234375	-2.295545654296875	0		-1.087941650390625	-0.038524650573730466	0		-0.7887890014648438	-2.255267578125	0		1.3725216064453125	-0.4238692626953125	0		3.0305751953125	0.17538697814941406	0		4.45347900390625	0.21278433227539062	0		5.6394033203125	0.11100053405761719	0		-0.2046942138671875	5.91254296875	0		
0.013103207588195801	-3.551720082759857E-4	0		0.47092697143554685	-2.302926513671875	0		-1.1097020263671875	-0.03524613952636719	0		-0.7605886840820313	-2.264858154296875	0		1.36559375	-0.43165374755859376	0		3.010653564453125	0.1709723358154297	0		4.44465966796875	0.21428961181640624	0		5.63244921875	0.11725227355957031	0		-0.22116387939453125	5.9037890625	0		
-0.013622669219970704	9.993100166320801E-5	0		0.4413862609863281	-2.302381103515625	0		-1.11042919921875	-0.03534478378295899	0		-0.7709927978515625	-2.256751708984375	0		1.3648983154296874	-0.4315538635253906	0		3.02978173828125	0.1638485870361328	0		4.4288076171875	0.20890492248535156	0		5.6360908203125	0.10052185821533204	0		-0.23656137084960938	5.89301318359375	0		
0.03365584945678711	-0.004765679836273193	0		0.46788043212890623	-2.304839111328125	0		-1.0982490234375	-0.04567216873168945	0		-0.844362060546875	-2.2505283203125	0		1.36428857421875	-0.43146185302734374	0		3.034001220703125	0.15698077392578125	0		4.4471279296875	0.20789498901367187	0		5.6327021484375	0.08925117492675781	0		-0.22346371459960937	5.90373193359375	0		
-0.0148261137008667	6.863100081682205E-5	0		0.41867181396484376	-2.29395654296875	0		-1.17377685546875	-0.04344211959838867	0		-0.7959082641601563	-2.25947119140625	0		1.36989990234375	-0.42348651123046877	0		3.01878515625	0.17744692993164063	0		4.4357841796875	0.2213941650390625	0		5.63748046875	0.11392111968994141	0		-0.3568392639160156	5.883037109375	0		
